# xmcd
#
# Track frame offsets: 
#        150
#        12647
#        25012
#        38097
#        50907
#        63640
#        77347
#        89160
#        102512
#        113520
#        126242
#        140360
#        153677
#        166905
#        179434
#        191860
#        205635
#        219692
#        232710
#        247080
#        258317
#        272627
#        285935
#
# Disc length: 3948 seconds
#
# Revision: 0
# Processed by: cddbd v1.5.2PL0 Copyright (c) Steve Scherf et al.
# Submitted via: ExactAudioCopy v0.99pb5
#
DISCID=4c0f6a17
DTITLE=J.B. Lenoir - Classics Blues and Rhythm Series - The chronologica
DTITLE=l J.B. Lenoir 1951-1954
DYEAR=2005
DGENRE=Blues
TTITLE0=Deep in dept blues
TTITLE1=Carrie Lee
TTITLE2=My baby told me
TTITLE3=Korea blues
TTITLE4=Play a little while
TTITLE5=Louise
TTITLE6=Let's roll
TTITLE7=People are meddling
TTITLE8=I have married
TTITLE9=The mountain
TTITLE10=I'll die tryin'
TTITLE11=How much more
TTITLE12=The mojo
TTITLE13=Slow down woman
TTITLE14=I want my baby
TTITLE15=How can I leave
TTITLE16=I'm in Korea
TTITLE17=Eisenhower blues
TTITLE18=Tax paying blues
TTITLE19=Mamma talk to your daughter
TTITLE20=Man watch your woman
TTITLE21=Sitting down thinking
TTITLE22=I'm gonna die someday (I must die)
EXTD=
EXTT0=
EXTT1=
EXTT2=
EXTT3=
EXTT4=
EXTT5=
EXTT6=
EXTT7=
EXTT8=
EXTT9=
EXTT10=
EXTT11=
EXTT12=
EXTT13=
EXTT14=
EXTT15=
EXTT16=
EXTT17=
EXTT18=
EXTT19=
EXTT20=
EXTT21=
EXTT22=
PLAYORDER=
